<svg width="234" height="91" viewBox="0 0 234 91" fill="none" xmlns="http://www.w3.org/2000/svg">
<rect y="69" width="39" height="17" rx="8.5" fill="white"/>
<rect y="3" width="74" height="17" rx="8.5" fill="white"/>
<rect y="25" width="59" height="17" rx="8.5" fill="white"/>
<rect y="47" width="50" height="17" rx="8.5" fill="white"/>
<path d="M93.734 26.498C93.1447 25.7727 92.85 25.1267 92.85 24.56C92.85 23.9707 93.3373 23.2 94.312 22.248C94.8787 21.704 95.4793 21.432 96.114 21.432C96.7487 21.432 97.6327 21.9987 98.766 23.132C99.0833 23.5173 99.5367 23.8913 100.126 24.254C100.715 24.594 101.259 24.764 101.758 24.764C103.866 24.764 104.92 23.9027 104.92 22.18C104.92 21.6587 104.625 21.228 104.036 20.888C103.469 20.5253 102.755 20.2647 101.894 20.106C101.033 19.9473 100.103 19.698 99.106 19.358C98.1087 18.9953 97.1793 18.576 96.318 18.1C95.4567 17.624 94.7313 16.876 94.142 15.856C93.5753 14.8133 93.292 13.5667 93.292 12.116C93.292 10.1213 94.0287 8.38733 95.502 6.914C96.998 5.418 99.0267 4.67 101.588 4.67C102.948 4.67 104.183 4.85133 105.294 5.214C106.427 5.554 107.209 5.90533 107.64 6.268L108.49 6.914C109.193 7.57133 109.544 8.12667 109.544 8.58C109.544 9.03333 109.272 9.65667 108.728 10.45C107.957 11.5833 107.164 12.15 106.348 12.15C105.872 12.15 105.283 11.9233 104.58 11.47C104.512 11.4247 104.376 11.3113 104.172 11.13C103.991 10.9487 103.821 10.8013 103.662 10.688C103.186 10.3933 102.574 10.246 101.826 10.246C101.101 10.246 100.489 10.4273 99.99 10.79C99.514 11.13 99.276 11.6173 99.276 12.252C99.276 12.864 99.5593 13.3627 100.126 13.748C100.715 14.1333 101.441 14.394 102.302 14.53C103.163 14.666 104.104 14.8813 105.124 15.176C106.144 15.448 107.085 15.788 107.946 16.196C108.807 16.604 109.521 17.318 110.088 18.338C110.677 19.3353 110.972 20.5707 110.972 22.044C110.972 23.5173 110.677 24.8207 110.088 25.954C109.499 27.0647 108.728 27.926 107.776 28.538C105.94 29.7393 103.979 30.34 101.894 30.34C100.829 30.34 99.82 30.2153 98.868 29.966C97.916 29.694 97.1453 29.3653 96.556 28.98C95.3547 28.2547 94.516 27.552 94.04 26.872L93.734 26.498ZM122.362 21.024L126.884 24.764C127.451 25.24 127.802 25.6027 127.938 25.852C128.097 26.1013 128.176 26.3393 128.176 26.566C128.176 27.11 127.825 27.8467 127.122 28.776C126.352 29.728 125.672 30.204 125.082 30.204C124.584 30.204 123.892 29.8753 123.008 29.218L122.668 28.98C122.147 28.5493 121.342 27.8013 120.254 26.736C119.166 25.648 118.339 24.8773 117.772 24.424V27.042C117.772 27.5633 117.75 27.96 117.704 28.232C117.682 28.4813 117.58 28.776 117.398 29.116C117.104 29.7053 116.231 30 114.78 30C113.352 30 112.48 29.694 112.162 29.082C112.004 28.742 111.902 28.4473 111.856 28.198C111.834 27.926 111.822 27.5293 111.822 27.008V6.642C111.822 6.12067 111.834 5.73533 111.856 5.486C111.902 5.214 112.004 4.908 112.162 4.568C112.48 3.956 113.364 3.65 114.814 3.65C115.902 3.65 116.673 3.84267 117.126 4.228C117.512 4.54533 117.716 5.044 117.738 5.724C117.761 5.928 117.772 6.24533 117.772 6.676V17.454C118.18 17.114 118.792 16.536 119.608 15.72C120.447 14.904 121.07 14.326 121.478 13.986L121.886 13.714C122.68 13.102 123.36 12.796 123.926 12.796C124.493 12.796 125.139 13.2607 125.864 14.19C126.612 15.0967 126.986 15.8107 126.986 16.332C126.986 16.8533 126.567 17.4653 125.728 18.168L122.362 21.024ZM143.989 12.286C145.327 12.8753 145.995 13.5893 145.995 14.428C145.995 14.836 145.905 15.2213 145.723 15.584C145.542 15.9467 145.451 16.1393 145.451 16.162L136.543 36.086C136.362 36.5167 136.203 36.8453 136.067 37.072C135.954 37.2987 135.761 37.514 135.489 37.718C135.217 37.922 134.877 38.024 134.469 38.024C134.061 38.024 133.461 37.854 132.667 37.514C131.33 36.9247 130.661 36.222 130.661 35.406C130.661 34.862 131.749 32.2667 133.925 27.62L127.159 16.23C126.706 15.482 126.479 14.9267 126.479 14.564C126.479 13.8387 127.091 13.1133 128.315 12.388C129.086 11.9347 129.687 11.708 130.117 11.708C130.548 11.708 130.899 11.7987 131.171 11.98C131.443 12.1613 131.636 12.354 131.749 12.558C131.885 12.7393 132.509 13.7933 133.619 15.72C134.753 17.624 135.829 19.4033 136.849 21.058C136.963 20.6953 137.575 19.3013 138.685 16.876C139.796 14.428 140.385 13.1247 140.453 12.966C140.544 12.8073 140.68 12.6147 140.861 12.388C141.156 12.0027 141.564 11.81 142.085 11.81C142.629 11.81 143.264 11.9687 143.989 12.286ZM161.891 5.996C162.072 5.656 162.378 5.418 162.809 5.282C163.24 5.146 163.784 5.078 164.441 5.078C165.098 5.078 165.62 5.13467 166.005 5.248C166.39 5.36133 166.685 5.49733 166.889 5.656C167.093 5.81467 167.252 6.04133 167.365 6.336C167.478 6.72133 167.535 7.31067 167.535 8.104V26.974C167.535 27.4953 167.512 27.892 167.467 28.164C167.444 28.4133 167.342 28.708 167.161 29.048C166.844 29.66 165.96 29.966 164.509 29.966C162.922 29.966 161.993 29.5467 161.721 28.708C161.585 28.3227 161.517 27.7333 161.517 26.94V20.038H152.507V26.974C152.507 27.4953 152.484 27.892 152.439 28.164C152.416 28.4133 152.314 28.708 152.133 29.048C151.816 29.66 150.932 29.966 149.481 29.966C147.894 29.966 146.965 29.5467 146.693 28.708C146.557 28.3227 146.489 27.7333 146.489 26.94V8.07C146.489 7.54867 146.5 7.16333 146.523 6.914C146.568 6.642 146.682 6.336 146.863 5.996C147.18 5.384 148.064 5.078 149.515 5.078C151.102 5.078 152.042 5.49733 152.337 6.336C152.45 6.72133 152.507 7.31067 152.507 8.104V15.04H161.517V8.07C161.517 7.54867 161.528 7.16333 161.551 6.914C161.596 6.642 161.71 6.336 161.891 5.996ZM168.902 15.074C168.902 14.5527 168.914 14.1673 168.936 13.918C168.982 13.646 169.084 13.34 169.242 13C169.56 12.4107 170.444 12.116 171.894 12.116C172.982 12.116 173.753 12.3087 174.206 12.694C174.592 13.0113 174.796 13.4987 174.818 14.156C174.841 14.3827 174.852 14.7113 174.852 15.142V27.042C174.852 27.5633 174.83 27.96 174.784 28.232C174.762 28.4813 174.66 28.776 174.478 29.116C174.184 29.7053 173.311 30 171.86 30C170.432 30 169.56 29.694 169.242 29.082C169.084 28.742 168.982 28.4473 168.936 28.198C168.914 27.9487 168.902 27.552 168.902 27.008V15.074ZM174.478 8.784C174.32 9.10133 174.025 9.328 173.594 9.464C173.164 9.6 172.586 9.668 171.86 9.668C171.158 9.668 170.591 9.6 170.16 9.464C169.73 9.328 169.424 9.09 169.242 8.75C169.084 8.41 168.982 8.11533 168.936 7.866C168.914 7.594 168.902 7.19733 168.902 6.676C168.902 6.15466 168.914 5.76933 168.936 5.52C168.982 5.248 169.084 4.95333 169.242 4.636C169.56 4.024 170.444 3.718 171.894 3.718C173.322 3.718 174.184 4.024 174.478 4.636C174.66 4.976 174.762 5.282 174.784 5.554C174.83 5.80333 174.852 6.18867 174.852 6.71C174.852 7.23133 174.83 7.628 174.784 7.9C174.762 8.14933 174.66 8.444 174.478 8.784ZM187.564 27.756C186.703 28.8893 185.332 29.456 183.45 29.456C181.569 29.456 179.801 28.5947 178.146 26.872C176.514 25.1267 175.698 23.098 175.698 20.786C175.698 18.474 176.526 16.4453 178.18 14.7C179.835 12.9547 181.648 12.082 183.62 12.082C184.391 12.082 185.094 12.2293 185.728 12.524C186.363 12.796 186.794 13.0567 187.02 13.306C187.27 13.5327 187.462 13.748 187.598 13.952C187.666 13.3173 187.893 12.8413 188.278 12.524C188.686 12.184 189.332 12.014 190.216 12.014C191.1 12.014 191.746 12.082 192.154 12.218C192.562 12.354 192.846 12.592 193.004 12.932C193.186 13.2493 193.288 13.5327 193.31 13.782C193.356 14.0313 193.378 14.4167 193.378 14.938V29.014C193.378 31.6207 192.472 33.7173 190.658 35.304C188.845 36.9133 186.805 37.718 184.538 37.718C182.816 37.718 181.172 37.2987 179.608 36.46C178.044 35.6213 177.262 34.862 177.262 34.182C177.262 33.298 177.602 32.516 178.282 31.836C178.713 31.36 179.042 31.0313 179.268 30.85C179.518 30.6687 179.801 30.578 180.118 30.578C180.436 30.578 180.764 30.714 181.104 30.986C182.192 31.8247 183.371 32.244 184.64 32.244C185.502 32.244 186.204 31.904 186.748 31.224C187.292 30.544 187.564 29.728 187.564 28.776V27.756ZM181.512 20.82C181.512 21.5453 181.796 22.2027 182.362 22.792C182.952 23.3813 183.654 23.676 184.47 23.676C185.309 23.676 186 23.3813 186.544 22.792C187.088 22.18 187.36 21.5227 187.36 20.82C187.36 20.0947 187.1 19.426 186.578 18.814C186.057 18.1793 185.354 17.862 184.47 17.862C183.586 17.862 182.872 18.168 182.328 18.78C181.784 19.392 181.512 20.072 181.512 20.82ZM204.665 12.15C206.932 12.15 208.813 13.0113 210.309 14.734C211.828 16.4567 212.587 18.5647 212.587 21.058V27.042C212.587 27.5633 212.564 27.96 212.519 28.232C212.496 28.4813 212.394 28.776 212.213 29.116C211.918 29.7053 211.046 30 209.595 30C208.212 30 207.351 29.7053 207.011 29.116C206.83 28.776 206.716 28.47 206.671 28.198C206.648 27.926 206.637 27.518 206.637 26.974V21.024C206.637 20.0947 206.376 19.3693 205.855 18.848C205.334 18.3267 204.665 18.066 203.849 18.066C203.056 18.066 202.353 18.3153 201.741 18.814C201.129 19.29 200.778 19.834 200.687 20.446V27.042C200.687 27.5633 200.664 27.96 200.619 28.232C200.596 28.4813 200.494 28.776 200.313 29.116C200.018 29.7053 199.146 30 197.695 30C196.267 30 195.394 29.694 195.077 29.082C194.918 28.742 194.816 28.4473 194.771 28.198C194.748 27.9487 194.737 27.552 194.737 27.008V6.676C194.737 6.15466 194.748 5.76933 194.771 5.52C194.816 5.248 194.918 4.95333 195.077 4.636C195.394 4.024 196.278 3.718 197.729 3.718C199.157 3.718 200.018 4.024 200.313 4.636C200.494 4.976 200.596 5.282 200.619 5.554C200.664 5.80333 200.687 6.18867 200.687 6.71V14.224C201.82 12.8413 203.146 12.15 204.665 12.15ZM123.178 39.214C124.697 39.758 125.456 40.4833 125.456 41.39C125.456 41.6847 125.32 42.24 125.048 43.056L118.52 61.926C118.475 62.0847 118.395 62.2773 118.282 62.504C118.169 62.7307 117.863 63.0367 117.364 63.422C116.888 63.7847 116.31 63.966 115.63 63.966C114.973 63.966 114.395 63.7847 113.896 63.422C113.42 63.0367 113.103 62.6627 112.944 62.3L108.966 50.57C106.45 58.0047 105.169 61.79 105.124 61.926C105.079 62.062 104.977 62.2547 104.818 62.504C104.659 62.7533 104.478 62.98 104.274 63.184C103.753 63.7053 103.129 63.966 102.404 63.966C101.679 63.966 101.078 63.796 100.602 63.456C100.149 63.116 99.8427 62.776 99.684 62.436L99.446 61.926L92.884 43.056C92.6347 42.308 92.51 41.7527 92.51 41.39C92.51 40.4833 93.2693 39.7693 94.788 39.248C95.4453 39.0213 96.0347 38.908 96.556 38.908C97.1 38.908 97.508 39.0893 97.78 39.452C98.0747 39.8147 98.3353 40.37 98.562 41.118L102.302 52.474L106.008 41.288C106.325 40.336 106.903 39.6787 107.742 39.316C108.105 39.1573 108.569 39.078 109.136 39.078C109.725 39.078 110.269 39.2707 110.768 39.656C111.267 40.0187 111.584 40.3813 111.72 40.744L115.63 52.542L119.37 41.118C119.551 40.5967 119.699 40.2113 119.812 39.962C119.925 39.7127 120.129 39.4747 120.424 39.248C120.741 38.9987 121.127 38.874 121.58 38.874C122.033 38.874 122.566 38.9873 123.178 39.214ZM124.937 49.074C124.937 48.5527 124.949 48.1673 124.971 47.918C125.017 47.646 125.119 47.34 125.277 47C125.595 46.4107 126.479 46.116 127.929 46.116C129.017 46.116 129.788 46.3087 130.241 46.694C130.627 47.0113 130.831 47.4987 130.853 48.156C130.876 48.3827 130.887 48.7113 130.887 49.142V61.042C130.887 61.5633 130.865 61.96 130.819 62.232C130.797 62.4813 130.695 62.776 130.513 63.116C130.219 63.7053 129.346 64 127.895 64C126.467 64 125.595 63.694 125.277 63.082C125.119 62.742 125.017 62.4473 124.971 62.198C124.949 61.9487 124.937 61.552 124.937 61.008V49.074ZM130.513 42.784C130.355 43.1013 130.06 43.328 129.629 43.464C129.199 43.6 128.621 43.668 127.895 43.668C127.193 43.668 126.626 43.6 126.195 43.464C125.765 43.328 125.459 43.09 125.277 42.75C125.119 42.41 125.017 42.1153 124.971 41.866C124.949 41.594 124.937 41.1973 124.937 40.676C124.937 40.1547 124.949 39.7693 124.971 39.52C125.017 39.248 125.119 38.9533 125.277 38.636C125.595 38.024 126.479 37.718 127.929 37.718C129.357 37.718 130.219 38.024 130.513 38.636C130.695 38.976 130.797 39.282 130.819 39.554C130.865 39.8033 130.887 40.1887 130.887 40.71C130.887 41.2313 130.865 41.628 130.819 41.9C130.797 42.1493 130.695 42.444 130.513 42.784ZM148.734 39.078C149.255 39.078 149.64 39.1007 149.89 39.146C150.162 39.1687 150.456 39.2707 150.774 39.452C151.114 39.6333 151.352 39.9393 151.488 40.37C151.624 40.8007 151.692 41.3787 151.692 42.104C151.692 42.8293 151.624 43.4073 151.488 43.838C151.352 44.2687 151.114 44.5747 150.774 44.756C150.434 44.9147 150.128 45.0167 149.856 45.062C149.606 45.0847 149.21 45.096 148.666 45.096H138.262V48.53H144.96C145.504 48.53 145.9 48.5527 146.15 48.598C146.422 48.6207 146.728 48.7227 147.068 48.904C147.657 49.244 147.952 50.1393 147.952 51.59C147.952 53.1767 147.521 54.1173 146.66 54.412C146.297 54.5253 145.719 54.582 144.926 54.582H138.262V61.008C138.262 61.552 138.239 61.9487 138.194 62.198C138.171 62.4473 138.069 62.742 137.888 63.082C137.57 63.694 136.686 64 135.236 64C133.649 64 132.72 63.5693 132.448 62.708C132.312 62.3453 132.244 61.7673 132.244 60.974V42.07C132.244 40.914 132.459 40.132 132.89 39.724C133.32 39.2933 134.136 39.078 135.338 39.078H148.734ZM151.868 49.074C151.868 48.5527 151.879 48.1673 151.902 47.918C151.947 47.646 152.049 47.34 152.208 47C152.525 46.4107 153.409 46.116 154.86 46.116C155.948 46.116 156.719 46.3087 157.172 46.694C157.557 47.0113 157.761 47.4987 157.784 48.156C157.807 48.3827 157.818 48.7113 157.818 49.142V61.042C157.818 61.5633 157.795 61.96 157.75 62.232C157.727 62.4813 157.625 62.776 157.444 63.116C157.149 63.7053 156.277 64 154.826 64C153.398 64 152.525 63.694 152.208 63.082C152.049 62.742 151.947 62.4473 151.902 62.198C151.879 61.9487 151.868 61.552 151.868 61.008V49.074ZM157.444 42.784C157.285 43.1013 156.991 43.328 156.56 43.464C156.129 43.6 155.551 43.668 154.826 43.668C154.123 43.668 153.557 43.6 153.126 43.464C152.695 43.328 152.389 43.09 152.208 42.75C152.049 42.41 151.947 42.1153 151.902 41.866C151.879 41.594 151.868 41.1973 151.868 40.676C151.868 40.1547 151.879 39.7693 151.902 39.52C151.947 39.248 152.049 38.9533 152.208 38.636C152.525 38.024 153.409 37.718 154.86 37.718C156.288 37.718 157.149 38.024 157.444 38.636C157.625 38.976 157.727 39.282 157.75 39.554C157.795 39.8033 157.818 40.1887 157.818 40.71C157.818 41.2313 157.795 41.628 157.75 41.9C157.727 42.1493 157.625 42.444 157.444 42.784Z" fill="white"/>
<path d="M93.144 77.458H100.372C100.649 77.458 100.853 77.4927 100.983 77.562C101.113 77.6227 101.2 77.7223 101.243 77.861C101.286 77.9997 101.308 78.1817 101.308 78.407C101.308 78.6323 101.286 78.8143 101.243 78.953C101.2 79.083 101.126 79.174 101.022 79.226C100.866 79.304 100.645 79.343 100.359 79.343H97.876V85.882C97.876 86.0813 97.8673 86.2287 97.85 86.324C97.8413 86.4193 97.8023 86.532 97.733 86.662C97.6723 86.7833 97.5597 86.87 97.395 86.922C97.2303 86.974 97.0137 87 96.745 87C96.4763 87 96.2597 86.974 96.095 86.922C95.939 86.87 95.8263 86.7833 95.757 86.662C95.6963 86.532 95.6573 86.4193 95.64 86.324C95.6313 86.22 95.627 86.0683 95.627 85.869V79.343H93.131C92.8537 79.343 92.65 79.3127 92.52 79.252C92.39 79.1827 92.3033 79.0787 92.26 78.94C92.2167 78.8013 92.195 78.6193 92.195 78.394C92.195 78.1687 92.2167 77.991 92.26 77.861C92.3033 77.7223 92.377 77.627 92.481 77.575C92.637 77.497 92.858 77.458 93.144 77.458ZM107.071 82.762C107.071 83.2907 106.937 83.685 106.668 83.945C106.408 84.1963 106.118 84.322 105.797 84.322H102.716C102.716 84.5647 102.859 84.7683 103.145 84.933C103.431 85.0977 103.717 85.18 104.003 85.18C104.506 85.18 104.9 85.128 105.186 85.024L105.329 84.972C105.537 84.8767 105.711 84.829 105.849 84.829C106.127 84.829 106.365 85.024 106.564 85.414C106.677 85.648 106.733 85.8473 106.733 86.012C106.733 86.7833 105.81 87.169 103.964 87.169C103.323 87.169 102.751 87.0607 102.248 86.844C101.754 86.6187 101.369 86.324 101.091 85.96C100.545 85.258 100.272 84.4737 100.272 83.607C100.272 82.515 100.623 81.644 101.325 80.994C102.036 80.3353 102.92 80.006 103.977 80.006C105.182 80.006 106.066 80.4307 106.629 81.28C106.924 81.7307 107.071 82.2247 107.071 82.762ZM104.328 83.139C104.658 83.139 104.822 83.0003 104.822 82.723C104.822 82.5237 104.744 82.3633 104.588 82.242C104.441 82.1207 104.224 82.06 103.938 82.06C103.661 82.06 103.384 82.177 103.106 82.411C102.829 82.6363 102.69 82.879 102.69 83.139H104.328ZM110.064 83.581C110.064 83.945 110.186 84.231 110.428 84.439C110.671 84.6383 110.927 84.738 111.195 84.738C111.473 84.738 111.728 84.66 111.962 84.504C112.205 84.3393 112.4 84.257 112.547 84.257C112.807 84.257 113.124 84.4867 113.496 84.946C113.696 85.1973 113.795 85.4227 113.795 85.622C113.795 85.9513 113.557 86.259 113.08 86.545C112.586 86.8917 111.98 87.065 111.26 87.065C110.454 87.065 109.679 86.7747 108.933 86.194C108.578 85.9167 108.288 85.5483 108.062 85.089C107.837 84.621 107.724 84.1097 107.724 83.555C107.724 82.9917 107.837 82.4847 108.062 82.034C108.288 81.5747 108.578 81.2063 108.933 80.929C109.653 80.357 110.42 80.071 111.234 80.071C111.564 80.071 111.884 80.1187 112.196 80.214C112.508 80.3007 112.738 80.3873 112.885 80.474L113.093 80.604C113.249 80.708 113.371 80.7903 113.457 80.851C113.683 81.0243 113.795 81.2237 113.795 81.449C113.795 81.6657 113.704 81.9127 113.522 82.19C113.21 82.6667 112.911 82.905 112.625 82.905C112.461 82.905 112.227 82.8097 111.923 82.619C111.767 82.4717 111.542 82.398 111.247 82.398C110.961 82.398 110.693 82.502 110.441 82.71C110.19 82.918 110.064 83.2083 110.064 83.581ZM118.355 80.175C119.222 80.175 119.941 80.5043 120.513 81.163C121.094 81.8217 121.384 82.6277 121.384 83.581V85.869C121.384 86.0683 121.375 86.22 121.358 86.324C121.349 86.4193 121.31 86.532 121.241 86.662C121.128 86.8873 120.795 87 120.24 87C119.711 87 119.382 86.8873 119.252 86.662C119.183 86.532 119.139 86.415 119.122 86.311C119.113 86.207 119.109 86.051 119.109 85.843V83.568C119.109 83.2127 119.009 82.9353 118.81 82.736C118.611 82.5367 118.355 82.437 118.043 82.437C117.74 82.437 117.471 82.5323 117.237 82.723C117.003 82.905 116.869 83.113 116.834 83.347V85.869C116.834 86.0683 116.825 86.22 116.808 86.324C116.799 86.4193 116.76 86.532 116.691 86.662C116.578 86.8873 116.245 87 115.69 87C115.144 87 114.81 86.883 114.689 86.649C114.628 86.519 114.589 86.4063 114.572 86.311C114.563 86.2157 114.559 86.064 114.559 85.856V78.082C114.559 77.8827 114.563 77.7353 114.572 77.64C114.589 77.536 114.628 77.4233 114.689 77.302C114.81 77.068 115.148 76.951 115.703 76.951C116.249 76.951 116.578 77.068 116.691 77.302C116.76 77.432 116.799 77.549 116.808 77.653C116.825 77.7483 116.834 77.8957 116.834 78.095V80.968C117.267 80.4393 117.774 80.175 118.355 80.175ZM126.239 80.149C127.106 80.149 127.825 80.4827 128.397 81.15C128.978 81.8087 129.268 82.6147 129.268 83.568V85.856C129.268 86.0553 129.259 86.207 129.242 86.311C129.233 86.4063 129.199 86.5147 129.138 86.636C129.017 86.87 128.679 86.987 128.124 86.987C127.509 86.987 127.153 86.8267 127.058 86.506C127.006 86.3587 126.98 86.1377 126.98 85.843V83.555C126.98 83.1997 126.876 82.9223 126.668 82.723C126.469 82.5237 126.196 82.424 125.849 82.424C125.511 82.424 125.234 82.528 125.017 82.736C124.809 82.944 124.705 83.217 124.705 83.555V85.856C124.705 86.0553 124.696 86.207 124.679 86.311C124.67 86.4063 124.631 86.5147 124.562 86.636C124.449 86.87 124.116 86.987 123.561 86.987C123.015 86.987 122.681 86.87 122.56 86.636C122.499 86.506 122.46 86.3933 122.443 86.298C122.434 86.194 122.43 86.0423 122.43 85.843V81.241C122.43 81.0503 122.434 80.9073 122.443 80.812C122.46 80.708 122.504 80.5953 122.573 80.474C122.694 80.2573 123.028 80.149 123.574 80.149C124.103 80.149 124.428 80.2487 124.549 80.448C124.636 80.5953 124.679 80.773 124.679 80.981C124.714 80.9203 124.792 80.8337 124.913 80.721C125.034 80.6083 125.151 80.5173 125.264 80.448C125.559 80.2487 125.884 80.149 126.239 80.149ZM130.119 83.581C130.119 82.541 130.483 81.683 131.211 81.007C131.939 80.331 132.771 79.993 133.707 79.993C134.643 79.993 135.471 80.331 136.19 81.007C136.909 81.6743 137.269 82.528 137.269 83.568C137.269 84.2873 137.083 84.9287 136.71 85.492C136.337 86.0467 135.882 86.4583 135.345 86.727C134.816 86.987 134.266 87.117 133.694 87.117C133.122 87.117 132.567 86.9783 132.03 86.701C131.493 86.415 131.038 85.999 130.665 85.453C130.301 84.8983 130.119 84.2743 130.119 83.581ZM132.836 84.517C133.113 84.725 133.395 84.829 133.681 84.829C133.967 84.829 134.253 84.7207 134.539 84.504C134.825 84.2873 134.968 83.9667 134.968 83.542C134.968 83.1173 134.834 82.801 134.565 82.593C134.296 82.385 134.006 82.281 133.694 82.281C133.382 82.281 133.092 82.3893 132.823 82.606C132.554 82.8227 132.42 83.1433 132.42 83.568C132.42 83.984 132.559 84.3003 132.836 84.517ZM138.109 78.069C138.109 77.8697 138.113 77.7223 138.122 77.627C138.139 77.523 138.178 77.406 138.239 77.276C138.36 77.042 138.698 76.925 139.253 76.925C139.782 76.925 140.111 77.042 140.241 77.276C140.31 77.406 140.349 77.523 140.358 77.627C140.375 77.731 140.384 77.8827 140.384 78.082V84.101C140.384 84.413 140.41 84.6123 140.462 84.699C140.514 84.777 140.627 84.816 140.8 84.816C140.982 84.816 141.103 84.8247 141.164 84.842C141.225 84.8507 141.298 84.8853 141.385 84.946C141.558 85.0587 141.645 85.3663 141.645 85.869C141.645 86.415 141.558 86.7487 141.385 86.87C141.16 87.026 140.622 87.052 139.773 86.948C139.106 86.8613 138.672 86.6403 138.473 86.285C138.23 85.8603 138.109 85.1843 138.109 84.257V78.069ZM142.167 83.581C142.167 82.541 142.531 81.683 143.259 81.007C143.987 80.331 144.819 79.993 145.755 79.993C146.691 79.993 147.518 80.331 148.238 81.007C148.957 81.6743 149.317 82.528 149.317 83.568C149.317 84.2873 149.13 84.9287 148.758 85.492C148.385 86.0467 147.93 86.4583 147.393 86.727C146.864 86.987 146.314 87.117 145.742 87.117C145.17 87.117 144.615 86.9783 144.078 86.701C143.54 86.415 143.085 85.999 142.713 85.453C142.349 84.8983 142.167 84.2743 142.167 83.581ZM144.884 84.517C145.161 84.725 145.443 84.829 145.729 84.829C146.015 84.829 146.301 84.7207 146.587 84.504C146.873 84.2873 147.016 83.9667 147.016 83.542C147.016 83.1173 146.881 82.801 146.613 82.593C146.344 82.385 146.054 82.281 145.742 82.281C145.43 82.281 145.139 82.3893 144.871 82.606C144.602 82.8227 144.468 83.1433 144.468 83.568C144.468 83.984 144.606 84.3003 144.884 84.517ZM154.499 86.142C154.169 86.5753 153.645 86.792 152.926 86.792C152.206 86.792 151.53 86.4627 150.898 85.804C150.274 85.1367 149.962 84.361 149.962 83.477C149.962 82.593 150.278 81.8173 150.911 81.15C151.543 80.4827 152.237 80.149 152.991 80.149C153.285 80.149 153.554 80.2053 153.797 80.318C154.039 80.422 154.204 80.5217 154.291 80.617C154.386 80.7037 154.46 80.786 154.512 80.864C154.538 80.6213 154.624 80.4393 154.772 80.318C154.928 80.188 155.175 80.123 155.513 80.123C155.851 80.123 156.098 80.149 156.254 80.201C156.41 80.253 156.518 80.344 156.579 80.474C156.648 80.5953 156.687 80.7037 156.696 80.799C156.713 80.8943 156.722 81.0417 156.722 81.241V86.623C156.722 87.6197 156.375 88.4213 155.682 89.028C154.988 89.6433 154.208 89.951 153.342 89.951C152.683 89.951 152.055 89.7907 151.457 89.47C150.859 89.1493 150.56 88.859 150.56 88.599C150.56 88.261 150.69 87.962 150.95 87.702C151.114 87.52 151.24 87.3943 151.327 87.325C151.422 87.2557 151.53 87.221 151.652 87.221C151.773 87.221 151.899 87.273 152.029 87.377C152.445 87.6977 152.895 87.858 153.381 87.858C153.71 87.858 153.979 87.728 154.187 87.468C154.395 87.208 154.499 86.896 154.499 86.532V86.142ZM152.185 83.49C152.185 83.7673 152.293 84.0187 152.51 84.244C152.735 84.4693 153.004 84.582 153.316 84.582C153.636 84.582 153.901 84.4693 154.109 84.244C154.317 84.01 154.421 83.7587 154.421 83.49C154.421 83.2127 154.321 82.957 154.122 82.723C153.922 82.4803 153.654 82.359 153.316 82.359C152.978 82.359 152.705 82.476 152.497 82.71C152.289 82.944 152.185 83.204 152.185 83.49ZM164.03 80.227C164.541 80.4523 164.797 80.7253 164.797 81.046C164.797 81.202 164.762 81.3493 164.693 81.488C164.623 81.6267 164.589 81.7003 164.589 81.709L161.183 89.327C161.113 89.4917 161.053 89.6173 161.001 89.704C160.957 89.7907 160.884 89.873 160.78 89.951C160.676 90.029 160.546 90.068 160.39 90.068C160.234 90.068 160.004 90.003 159.701 89.873C159.189 89.6477 158.934 89.379 158.934 89.067C158.934 88.859 159.35 87.8667 160.182 86.09L157.595 81.735C157.421 81.449 157.335 81.2367 157.335 81.098C157.335 80.8207 157.569 80.5433 158.037 80.266C158.331 80.0927 158.561 80.006 158.726 80.006C158.89 80.006 159.025 80.0407 159.129 80.11C159.233 80.1793 159.306 80.253 159.35 80.331C159.402 80.4003 159.64 80.8033 160.065 81.54C160.498 82.268 160.91 82.9483 161.3 83.581C161.343 83.4423 161.577 82.9093 162.002 81.982C162.426 81.046 162.652 80.5477 162.678 80.487C162.712 80.4263 162.764 80.3527 162.834 80.266C162.946 80.1187 163.102 80.045 163.302 80.045C163.51 80.045 163.752 80.1057 164.03 80.227ZM168.936 85.661C168.711 85.3837 168.598 85.1367 168.598 84.92C168.598 84.6947 168.785 84.4 169.157 84.036C169.374 83.828 169.604 83.724 169.846 83.724C170.089 83.724 170.427 83.9407 170.86 84.374C170.982 84.5213 171.155 84.6643 171.38 84.803C171.606 84.933 171.814 84.998 172.004 84.998C172.81 84.998 173.213 84.6687 173.213 84.01C173.213 83.8107 173.101 83.646 172.875 83.516C172.659 83.3773 172.386 83.2777 172.056 83.217C171.727 83.1563 171.372 83.061 170.99 82.931C170.609 82.7923 170.254 82.632 169.924 82.45C169.595 82.268 169.318 81.982 169.092 81.592C168.876 81.1933 168.767 80.7167 168.767 80.162C168.767 79.3993 169.049 78.7363 169.612 78.173C170.184 77.601 170.96 77.315 171.939 77.315C172.459 77.315 172.932 77.3843 173.356 77.523C173.79 77.653 174.089 77.7873 174.253 77.926L174.578 78.173C174.847 78.4243 174.981 78.6367 174.981 78.81C174.981 78.9833 174.877 79.2217 174.669 79.525C174.375 79.9583 174.071 80.175 173.759 80.175C173.577 80.175 173.352 80.0883 173.083 79.915C173.057 79.8977 173.005 79.8543 172.927 79.785C172.858 79.7157 172.793 79.6593 172.732 79.616C172.55 79.5033 172.316 79.447 172.03 79.447C171.753 79.447 171.519 79.5163 171.328 79.655C171.146 79.785 171.055 79.9713 171.055 80.214C171.055 80.448 171.164 80.6387 171.38 80.786C171.606 80.9333 171.883 81.033 172.212 81.085C172.542 81.137 172.901 81.2193 173.291 81.332C173.681 81.436 174.041 81.566 174.37 81.722C174.7 81.878 174.973 82.151 175.189 82.541C175.415 82.9223 175.527 83.3947 175.527 83.958C175.527 84.5213 175.415 85.0197 175.189 85.453C174.964 85.8777 174.669 86.207 174.305 86.441C173.603 86.9003 172.854 87.13 172.056 87.13C171.649 87.13 171.263 87.0823 170.899 86.987C170.535 86.883 170.241 86.7573 170.015 86.61C169.556 86.3327 169.235 86.064 169.053 85.804L168.936 85.661ZM182.977 82.762C182.977 83.2907 182.842 83.685 182.574 83.945C182.314 84.1963 182.023 84.322 181.703 84.322H178.622C178.622 84.5647 178.765 84.7683 179.051 84.933C179.337 85.0977 179.623 85.18 179.909 85.18C180.411 85.18 180.806 85.128 181.092 85.024L181.235 84.972C181.443 84.8767 181.616 84.829 181.755 84.829C182.032 84.829 182.27 85.024 182.47 85.414C182.582 85.648 182.639 85.8473 182.639 86.012C182.639 86.7833 181.716 87.169 179.87 87.169C179.228 87.169 178.656 87.0607 178.154 86.844C177.66 86.6187 177.274 86.324 176.997 85.96C176.451 85.258 176.178 84.4737 176.178 83.607C176.178 82.515 176.529 81.644 177.231 80.994C177.941 80.3353 178.825 80.006 179.883 80.006C181.087 80.006 181.971 80.4307 182.535 81.28C182.829 81.7307 182.977 82.2247 182.977 82.762ZM180.234 83.139C180.563 83.139 180.728 83.0003 180.728 82.723C180.728 82.5237 180.65 82.3633 180.494 82.242C180.346 82.1207 180.13 82.06 179.844 82.06C179.566 82.06 179.289 82.177 179.012 82.411C178.734 82.6363 178.596 82.879 178.596 83.139H180.234ZM188.479 80.227C188.643 80.279 188.778 80.37 188.882 80.5C188.994 80.6213 189.051 80.8207 189.051 81.098C189.051 81.3753 188.968 81.6787 188.804 82.008C188.639 82.3373 188.401 82.502 188.089 82.502C187.933 82.502 187.781 82.4673 187.634 82.398C187.495 82.3287 187.309 82.294 187.075 82.294C186.841 82.294 186.62 82.3763 186.412 82.541C186.212 82.7057 186.113 82.905 186.113 83.139V85.869C186.113 86.0683 186.104 86.22 186.087 86.324C186.078 86.4193 186.039 86.532 185.97 86.662C185.84 86.8873 185.502 87 184.956 87C184.54 87 184.241 86.9263 184.059 86.779C183.92 86.6577 183.842 86.4713 183.825 86.22C183.825 86.1333 183.825 86.0077 183.825 85.843V81.28C183.825 81.0807 183.829 80.9333 183.838 80.838C183.855 80.734 183.894 80.6213 183.955 80.5C184.076 80.266 184.414 80.149 184.969 80.149C185.489 80.149 185.814 80.2487 185.944 80.448C186.039 80.5867 186.087 80.7297 186.087 80.877C186.13 80.8163 186.191 80.7427 186.269 80.656C186.355 80.5693 186.533 80.4523 186.802 80.305C187.07 80.1577 187.304 80.084 187.504 80.084C187.712 80.084 187.885 80.097 188.024 80.123C188.162 80.1403 188.314 80.175 188.479 80.227ZM196.669 80.305C197.12 80.5737 197.345 80.8597 197.345 81.163C197.345 81.3363 197.258 81.5747 197.085 81.878L194.394 86.493C194.307 86.6403 194.169 86.7747 193.978 86.896C193.787 87.0087 193.597 87.065 193.406 87.065C193.224 87.065 193.046 87.0217 192.873 86.935C192.708 86.8397 192.591 86.7443 192.522 86.649L192.405 86.506L189.701 81.878C189.528 81.592 189.441 81.358 189.441 81.176C189.441 80.864 189.666 80.5737 190.117 80.305C190.446 80.1143 190.706 80.019 190.897 80.019C191.088 80.019 191.235 80.0797 191.339 80.201C191.452 80.3137 191.569 80.487 191.69 80.721L193.393 83.997L195.096 80.721C195.191 80.5563 195.261 80.4393 195.304 80.37C195.356 80.292 195.434 80.2183 195.538 80.149C195.642 80.071 195.781 80.032 195.954 80.032C196.127 80.032 196.366 80.123 196.669 80.305ZM198.056 81.293C198.056 81.0937 198.06 80.9463 198.069 80.851C198.086 80.747 198.125 80.63 198.186 80.5C198.307 80.2747 198.645 80.162 199.2 80.162C199.616 80.162 199.911 80.2357 200.084 80.383C200.231 80.5043 200.309 80.6907 200.318 80.942C200.327 81.0287 200.331 81.1543 200.331 81.319V85.869C200.331 86.0683 200.322 86.22 200.305 86.324C200.296 86.4193 200.257 86.532 200.188 86.662C200.075 86.8873 199.742 87 199.187 87C198.641 87 198.307 86.883 198.186 86.649C198.125 86.519 198.086 86.4063 198.069 86.311C198.06 86.2157 198.056 86.064 198.056 85.856V81.293ZM200.188 78.888C200.127 79.0093 200.015 79.096 199.85 79.148C199.685 79.2 199.464 79.226 199.187 79.226C198.918 79.226 198.702 79.2 198.537 79.148C198.372 79.096 198.255 79.005 198.186 78.875C198.125 78.745 198.086 78.6323 198.069 78.537C198.06 78.433 198.056 78.2813 198.056 78.082C198.056 77.8827 198.06 77.7353 198.069 77.64C198.086 77.536 198.125 77.4233 198.186 77.302C198.307 77.068 198.645 76.951 199.2 76.951C199.746 76.951 200.075 77.068 200.188 77.302C200.257 77.432 200.296 77.549 200.305 77.653C200.322 77.7483 200.331 77.8957 200.331 78.095C200.331 78.2943 200.322 78.446 200.305 78.55C200.296 78.6453 200.257 78.758 200.188 78.888ZM203.515 83.581C203.515 83.945 203.636 84.231 203.879 84.439C204.121 84.6383 204.377 84.738 204.646 84.738C204.923 84.738 205.179 84.66 205.413 84.504C205.655 84.3393 205.85 84.257 205.998 84.257C206.258 84.257 206.574 84.4867 206.947 84.946C207.146 85.1973 207.246 85.4227 207.246 85.622C207.246 85.9513 207.007 86.259 206.531 86.545C206.037 86.8917 205.43 87.065 204.711 87.065C203.905 87.065 203.129 86.7747 202.384 86.194C202.028 85.9167 201.738 85.5483 201.513 85.089C201.287 84.621 201.175 84.1097 201.175 83.555C201.175 82.9917 201.287 82.4847 201.513 82.034C201.738 81.5747 202.028 81.2063 202.384 80.929C203.103 80.357 203.87 80.071 204.685 80.071C205.014 80.071 205.335 80.1187 205.647 80.214C205.959 80.3007 206.188 80.3873 206.336 80.474L206.544 80.604C206.7 80.708 206.821 80.7903 206.908 80.851C207.133 81.0243 207.246 81.2237 207.246 81.449C207.246 81.6657 207.155 81.9127 206.973 82.19C206.661 82.6667 206.362 82.905 206.076 82.905C205.911 82.905 205.677 82.8097 205.374 82.619C205.218 82.4717 204.992 82.398 204.698 82.398C204.412 82.398 204.143 82.502 203.892 82.71C203.64 82.918 203.515 83.2083 203.515 83.581ZM214.499 82.762C214.499 83.2907 214.365 83.685 214.096 83.945C213.836 84.1963 213.546 84.322 213.225 84.322H210.144C210.144 84.5647 210.287 84.7683 210.573 84.933C210.859 85.0977 211.145 85.18 211.431 85.18C211.934 85.18 212.328 85.128 212.614 85.024L212.757 84.972C212.965 84.8767 213.138 84.829 213.277 84.829C213.554 84.829 213.793 85.024 213.992 85.414C214.105 85.648 214.161 85.8473 214.161 86.012C214.161 86.7833 213.238 87.169 211.392 87.169C210.751 87.169 210.179 87.0607 209.676 86.844C209.182 86.6187 208.796 86.324 208.519 85.96C207.973 85.258 207.7 84.4737 207.7 83.607C207.7 82.515 208.051 81.644 208.753 80.994C209.464 80.3353 210.348 80.006 211.405 80.006C212.61 80.006 213.494 80.4307 214.057 81.28C214.352 81.7307 214.499 82.2247 214.499 82.762ZM211.756 83.139C212.085 83.139 212.25 83.0003 212.25 82.723C212.25 82.5237 212.172 82.3633 212.016 82.242C211.869 82.1207 211.652 82.06 211.366 82.06C211.089 82.06 210.811 82.177 210.534 82.411C210.257 82.6363 210.118 82.879 210.118 83.139H211.756ZM215.399 86.389C215.234 86.285 215.152 86.1203 215.152 85.895C215.152 85.6697 215.317 85.3273 215.646 84.868C215.741 84.7207 215.893 84.647 216.101 84.647C216.318 84.647 216.608 84.7553 216.972 84.972C217.336 85.18 217.665 85.284 217.96 85.284C218.489 85.284 218.753 85.18 218.753 84.972C218.753 84.8073 218.463 84.686 217.882 84.608C217.336 84.53 216.794 84.3263 216.257 83.997C216.006 83.841 215.798 83.5983 215.633 83.269C215.468 82.931 215.386 82.5323 215.386 82.073C215.386 80.7037 216.326 80.019 218.207 80.019C218.822 80.019 219.455 80.1663 220.105 80.461C220.408 80.5997 220.56 80.773 220.56 80.981C220.56 81.189 220.465 81.4447 220.274 81.748C220.083 82.0513 219.888 82.203 219.689 82.203C219.585 82.203 219.39 82.138 219.104 82.008C218.827 81.878 218.523 81.813 218.194 81.813C217.683 81.813 217.427 81.9083 217.427 82.099C217.427 82.359 217.722 82.528 218.311 82.606C218.883 82.6667 219.438 82.8313 219.975 83.1C220.226 83.2213 220.434 83.4337 220.599 83.737C220.772 84.0317 220.859 84.4043 220.859 84.855C220.859 85.3057 220.772 85.6913 220.599 86.012C220.434 86.324 220.2 86.558 219.897 86.714C219.342 86.9827 218.645 87.117 217.804 87.117C216.972 87.117 216.17 86.8743 215.399 86.389Z" fill="white"/>
</svg>
